# xmcd CD database file
#
# Track frame offsets:
#	150
#	14117
#	23562
#	36389
#	46041
#	56935
#	71502
#	85405
#	99451
#	110417
#	121958
#	132814
#	146833
#	156619
#	177014
#	189708
#
# Disc length: 2675 seconds
#
# Revision: 0
# Processed by: cddbd v1.5.2PL0 Copyright (c) Steve Scherf et al.
# Submitted via: CDex 1.70beta2
#
DISCID=e60a7110
DTITLE=Various Artist - Country Legends - kiss An Angel Good Morning
DYEAR=2005
DGENRE=Country
TTITLE0=You Are My Sunshine - Boxcar Willie
TTITLE1=Kiss An Angel Good Morning - Charley Pride
TTITLE2=Dallas - Billie Jo Spears
TTITLE3=In The Jailhouse Now - Webb Pierce
TTITLE4=I Love You Becasue - Johnny Cash
TTITLE5=Coal Miner's Daughter - Loretta Lynn
TTITLE6=Don't Fence Me In - Frankie Laine
TTITLE7=Cold Cold Heart - Jerry Lee Lewis
TTITLE8=It Wasn't God Who Made Honky Tonk Angels - Dolly Parton
TTITLE9=I Love You More - Jim Reeves
TTITLE10=Ticket To Nowhere - Kenny Rogers 
TTITLE11=Angel Of The Morning - Rita Remington
TTITLE12=King Of The Mountain - Jerry Wallace
TTITLE13=Too Lod For THis Dress - Barbara Fairchild
TTITLE14=Any Old Arms Won't Do - Willie Nelson
TTITLE15=I Can't Forget - Patsy Cline
EXTD=YEAR: 2005
EXTT0=
EXTT1=
EXTT2=
EXTT3=
EXTT4=
EXTT5=
EXTT6=
EXTT7=
EXTT8=
EXTT9=
EXTT10=
EXTT11=
EXTT12=
EXTT13=
EXTT14=
EXTT15=
PLAYORDER=
